<?xml version="1.0" encoding="UTF-8"?><svg id="uuid-efe44849-2b5a-4e3f-8cbf-344c9b022cbc" xmlns="http://www.w3.org/2000/svg" xmlns:xlink="http://www.w3.org/1999/xlink" viewBox="0 0 401.23 213.85"><defs><clipPath id="uuid-b434491a-f136-4794-a5bc-729f9e70b768"><path d="M393.86,102.54c.41,55.93-80.59,99.96-192.55,100.67-98.88.62-193.58-43.22-193.96-98.21C6.96,50.02,99.51,4.49,199.91,3.85c100.92-.64,193.59,44.66,193.95,98.69Z" style="fill:none;"/></clipPath><linearGradient id="uuid-86587735-8797-4829-9043-450c5f33d949" x1="1334.04" y1="-1109.26" x2="1827.82" y2="-440.34" gradientTransform="translate(-331.87 -157.43) scale(.34 -.34)" gradientUnits="userSpaceOnUse"><stop offset="0" stop-color="#be9b48"/><stop offset=".25" stop-color="#efc85f"/><stop offset=".6" stop-color="#c2a14d"/><stop offset=".82" stop-color="#fed164"/><stop offset="1" stop-color="#bf9d4a"/></linearGradient></defs><path d="M198.06,213.85h-2.79c-83.44-.37-162.65-34.01-185.85-80.92,56.83-1.32,207.5-4.6,310.49-4.6,29.8,0,55.64.28,74.02.95-22.42,47.26-94.97,82.09-189.45,84.47-2.15.05-4.28.08-6.43.09" style="fill-rule:evenodd; isolation:isolate; opacity:.5;"/><path d="M401.23,102.15c.4,57.89-83.7,103.46-199.89,104.18C98.69,207,.4,161.61,0,104.69-.4,47.8,95.67.67,199.88,0c104.74-.66,200.96,46.23,201.35,102.14" style="fill:#fff; fill-rule:evenodd;"/><g style="clip-path:url(#uuid-b434491a-f136-4794-a5bc-729f9e70b768);"><path d="M6.96,3.21h387.31v200.62H6.96V3.21Z" style="fill:url(#uuid-86587735-8797-4829-9043-450c5f33d949);"/></g><path d="M381.93,101.07c.37,55.11-75.65,98.45-180.67,99.17-92.77.62-181.6-42.59-181.96-96.74C18.93,49.33,105.77,4.48,199.94,3.85c94.67-.64,181.64,44,181.99,97.22" style="fill:#e3000f; fill-rule:evenodd;"/><path d="M188.78,99.77c-1.71-.03-2.32-.21-2.32-.21-5.4-1.11-3.74-5.57-3.74-5.57,4.05-8.45,19.61-1.19,19.61-1.19.63.89-2.72,3.38-2.72,3.38,0,0-4.81,3.03-10.83,3.6M219.78,53.97s5.65-1.76,6.92,5.38c0,0,1.27,7.02-5.21,9.97,0,0-3.72,1.61-5.27-.6l3.57-14.74ZM230.37,91.57l2.22-2.65-14.1-16.06c16.99-1.55,12.56-15.43,12.56-15.43-4.3-11.72-15.91-6.07-15.91-6.07-.19.32-7.28,34.18-7.28,34.18-.18,2.74-1.65,1.92-1.65,1.92-18.48-8.42-27.08.18-27.08.18-.93,1.15.33,1.77.33,1.77,1.05.4,1.86-.34,1.86-.34,9.63-6.97,22.05.06,22.05.06,1.74,1.74-1.05,1.14-1.05,1.14-21.05-7.59-23.13,4.49-23.13,4.49-.46,7.54,8.71,8.35,8.71,8.35l7.31-.05c.69-2.08,1.17-2.27,1.17-2.27,5.06-1.49,11.23-7.77,11.23-7.77,8.48,4.05,13.35,2.56,13.35,2.56,5.81-1.99,3.21-7.31,3.21-7.31-1.72-3.37-4.26-3.95-4.26-3.95-.59-.08-1.12.27-1.12.27-.93.55-.12,1.14-.12,1.14,2.25.66,2.52,2.46,2.52,2.46.35,5.97-9.35,2.23-9.35,2.23l2.97-15.58,15.58,16.72Z" style="fill:#fff; fill-rule:evenodd;"/><path d="M191.4,68.46l1.76-5.92,3.71,1.96-5.47,3.96ZM185.77,70.56c-7.55-1.24-5.11-6.99-5.11-6.99,2.46-4.91,7.88-2.63,7.88-2.63l-2.77,9.62ZM204.06,77.62l7.67-33.55s-4.8.8-5.25.72c0,0-2.03.63.63,2.14l-4.33,17.87-1.89-.61s.63-6.18-3.11-1.77l-4.37-2.46,3.52-16.47-6.8.04s-2.84-.08,1.65,3.16l-2.9,11.59s-8.1-2.09-11.8,5.4c0,0-3.03,8.24,7.6,10.48l-2.26,9.27s3.93-2.51,6.16-2.27l2-8.41s6.4-3.99,8.7-6.66c0,0,3.43,1.1,2.67,1.87,0,0-2.73,12.02-3.42,12.28,0,0,2.07,3.49,5.33,5.1,0,0,1.97.76,1.46-1.72,0,0-2.67-3.24-1.25-5.99h0Z" style="fill:#fff; fill-rule:evenodd;"/><path d="M178.7,86.14c-3.88-5.22-6.2-11.68-6.25-18.7-.11-17.56,14.03-31.89,31.61-32.01,17.56-.11,31.89,14.03,32.03,31.59.04,6.51-1.46,11.89-4.8,16.96,1.06,1.29,1.62,1.77,2.72,2.86,3.76-5.69,5.92-12.52,5.88-19.84-.15-19.68-16.2-35.51-35.86-35.38-19.68.13-35.53,16.18-35.39,35.86.03,7.89,2.67,15.18,7.06,21.04.93-.83,1.93-1.63,2.99-2.38" style="fill:#fff; fill-rule:evenodd;"/><path d="M154.96,143.57l10.56-42.46.93-3.29c-.02-1.41,1.37-4.25-.05-3.77-1.87.01-8.45,1.94-9.4,2.42-.93.01-1.38,1.42-.46,1.89.96.45,1.9.93,1.44,3.28l-10.55,41.53s-.46,1.41-.46,1.88c-.45.95-.43,1.4-1.86,1.42-1.42.48-1.42,2.36,0,2.35h.94l7.52-.05,2.37-.02c.93,0,.92-1.41.46-1.89-1.42-.93-1.88-1.41-1.44-3.29" style="fill:#fff; fill-rule:evenodd;"/><path d="M136.54,135.21c-.91,4.25-5.11,9.45-8.89,9.48-1.4.01-3.31-.92-3.32-4.69-.04-6.59,6.99-9.93,14.5-13.28l-2.29,8.48ZM144.61,143.17s-.94.93-1.88.95c-.95,0-.96-1.4-.5-3.29,0,0,5.08-17.93,5.05-21.23-.02-3.77-2.43-8.93-10.42-8.88-8.01.06-13.62,4.34-13.6,8.58,0,0,.48,2.35,3.31,2.33,5.18-.04,4.2-7.56,9.37-7.59,3.76-.02,5.21,2.79,4.3,6.57-1.86,5.66-23.97,7.21-23.88,20.88.02,5.18,2.87,8.46,7.58,8.43,6.11-.05,10.31-5.73,10.31-5.73,0,0,.02,4.72,3.8,4.69,3.76-.02,6.57-4.28,6.57-4.28v-1.4Z" style="fill:#fff; fill-rule:evenodd;"/><path d="M81.33,118.15c-.93.48-1.89.96-2.35.96-1.87.01-4.23-.91-4.26-3.74-.03-2.36,1.85-4.72,5.63-4.75.93,0,1.87-.01,2.82.44l-1.84,7.08ZM114.82,125c2.34-1.43,4.22-3.33,6.08-5.69.93-.96.92-2.37-.96-1.88-.93.47-1.88.95-3.76.97l8.27-31.61-.02-.94c.46-.94.94-1.41,1.88-1.89,1.41-.49,1.41-1.91,0-1.9l-10.85.08c-.94.01-.93,1.42-.47,1.89,1.43.46,2.39,1.4,1.93,3.75l-7.8,29.25c-6.14-2.31-11.84-7.92-17.51-9.77l5.06-20.27v-.95c.45-.95.45-1.42,1.87-1.89,1.4-.49,1.38-1.9,0-1.88l-10.85.06c-.94.01-.93,1.41-.45,1.88,1.41.47,2.37,1.4,1.44,3.78l-4.59,18.38c-8,1-13.14,4.81-13.11,10.93.04,5.64,4.29,8.91,8.05,8.89l-4.12,17.45s-.44,1.41-.44,1.88c-.46.95-.46,1.42-1.87,1.44-1.42.46-1.39,2.36.01,2.34h.93l7.54-.05,2.37-.02c.93,0,.92-1.42.46-1.89-1.43-.93-1.91-1.4-1.91-3.28l7.81-29.72c6.14,3.72,12.76,8.86,17.48,10.71l-4.57,18.4s-.47,1.41-.47,1.89c-.46.94-.46,1.4-1.88,1.42-1.39.49-1.38,2.38.01,2.35h.95l7.54-.06,2.35-.02c.95,0,.95-1.4.45-1.88-1.39-.94-1.89-1.4-1.41-3.29l4.58-18.86Z" style="fill:#fff; fill-rule:evenodd;"/><path d="M182.18,126.9c-.45,2.35-.9,5.18-1.82,7.54-1.41,4.72-3.73,8.96-7.02,8.99-4.71.03-5.2-4.68-5.23-9.38-.05-6.11,4.1-18.86,11.17-18.92,2.83-.02,4.24,1.85,4.27,5.15,0,.94-.46,3.31-1.37,6.61M197.27,97.03v-.47c.4-1.21,1.44-3.44.58-3.77h-.61c-1.42,0-8.48,1.93-9.41,2.41-.95,0-.93,1.42-.44,1.88,1.39.45,1.87.93,1.42,2.81l-.46,2.37c-.91,4.25-2.51,9.09-2.97,12.37-.95-1.4-2.84-4.21-7.56-4.19-9.89.07-17.81,12.85-17.74,24.14.08,9.9,4.35,14.57,9.07,14.53,5.62-.03,9.36-5.24,10.31-6.19,0,3.3-.9,6.13.5,5.66,1.43-.95,7.98-4.77,8.93-5.24.93-.48.45-1.41-.5-1.88-1.4.02-2.82.02-2.37-2.82l10.33-38.33.93-3.28Z" style="fill:#fff; fill-rule:evenodd;"/><path d="M306.86,106.29c0,1.89-.46,2.82-1.4,4.71l.49.95s6.08-4.75,6.05-10.41c-.03-2.81-1.92-4.7-3.81-4.68-2.34.01-4.69,1.92-4.66,4.74.02,3.29,3.33,4.7,3.33,4.7" style="fill:#fff; fill-rule:evenodd;"/><path d="M247.67,134.47c-1.35,4.24-5.56,9.46-8.86,9.47-1.42,0-3.3-.91-3.33-4.69-.04-6.59,7-9.93,14.03-13.28l-1.84,8.5ZM252.91,140.08s5.07-17.93,5.51-21.23c-.02-3.76-2.41-8.93-10.42-8.87-8,.06-13.63,4.33-13.6,8.57,0,0,.5,2.35,2.87,2.34,5.63-.04,4.17-7.56,9.83-7.6,3.27-.03,4.73,2.79,3.81,6.56-1.38,5.67-23.5,7.23-23.42,20.88.03,5.18,2.89,8.46,7.12,8.43,6.58-.05,10.78-5.72,10.78-5.72,0,0,.04,4.69,3.33,4.68,4.25-.02,7.06-4.28,7.06-4.28v-1.41s-.95.95-2.37.96c-.49,0-.49-1.42-.5-3.31h0Z" style="fill:#fff; fill-rule:evenodd;"/><path d="M200.39,102.75c-.92,2.83.51,4.72,3.31,4.7,2.35-.02,5.18-1.92,5.64-4.76.91-2.84-.98-4.71-3.32-4.69-2.36.02-5.18,1.93-5.62,4.75" style="fill:#fff; fill-rule:evenodd;"/><path d="M325.24,110.87c-1.41-.47-3.78-1.39-6.59-1.37-6.61.04-11.76,4.79-11.71,11.38.04,5.66,6.19,8.9,10.92,12.17,2.85,2.34,3.33,4.69,3.35,6.1.01,2.36-2.32,5.67-7.03,5.71h-1.42c-4.25-1.37-4.29-7.02-4.3-8.44,0-1.41-1.88-1.4-2.34,0-.46.95-.9,5.67-1.38,7.55,1.9,1.86,3.32,2.8,4.75,3.26,1.89.46,3.77.92,6.6.89,5.63-.03,11.72-4.32,11.69-11.38-.05-7.53-6.65-9.37-11.87-14.52-1.42-1.4-2.37-2.81-2.38-4.7-.01-2.36,1.85-4.72,5.63-4.75.93-.01,2.36.46,3.76.92,2.84.92,3.33,3.74,2.88,6.1,0,1.41,2.35,1.41,2.33.46.47-1.42,1.4-4.25,2.32-6.61-2.36-1.87-3.79-2.32-5.19-2.78" style="fill:#fff; fill-rule:evenodd;"/><path d="M296.99,109.64c-4.25.04-8.47,3.83-9.4,5.25-.49-2.35-1.9-5.17-5.68-5.15-4.23.03-7.99,3.82-9.38,5.24l-.02-1.88c.45-1.88.93-3.78-1.43-3.28-1.4.48-7.05,2.39-7.99,2.41-.94.48-.93,1.88,0,1.88.95.46,2.36.92,2.38,3.27l-5.94,25s-.49,1.42-.94,1.89c0,.94-.46,1.41-1.41,1.42-1.39.48-1.38,2.36.02,2.36h.47s7.54-.05,7.54-.05l2.35-.02c1.41,0,1.38-1.43.44-1.89-.94-.93-1.89-1.41-1.43-3.77l6.42-25c.95-.94,1.87-1.9,3.77-1.9,3.29-.03,3.31,2.8,2.86,4.22l-5.51,22.65s-.46,1.41-.45,1.88c-.45.96-.94,1.43-1.87,1.9-1.42,0-1.42,1.88.02,1.88h.93s7.07-.05,7.07-.05l2.83-.02c.94,0,.93-1.42.46-1.89-1.43-.93-2.36-1.4-1.91-3.76l6.44-24.05v-.47c.91-1.42,2.32-2.36,4.21-2.38,2.81-.02,3.3,2.8,2.85,4.22l-5.5,22.64s-.46,1.41-.46,1.89c-.45.94-.93,1.42-1.86,1.89-1.43.01-1.41,1.89,0,1.88h.94l7.06-.05,2.82-.02c.94,0,.93-1.41.47-1.89-1.42-.93-2.38-1.41-1.92-3.76l5.96-23.59c.93-2.82.42-8.95-5.22-8.91" style="fill:#fff; fill-rule:evenodd;"/><path d="M234.36,114.3c-.02-1.41-.5-4.22-4.74-4.21-3.75.04-7.02,4.29-8.43,6.65l.44-3.3c-.02-1.88.45-3.76-1.43-3.29-1.41.49-7.51,2.41-8.47,2.41-.92.49-.92,1.9.02,1.88.95.47,2.85.92,2.38,3.29l-5.96,25s-.46,1.4-.46,1.88c-.46.94-.93,1.41-1.86,1.42-1.43.48-1.41,2.37,0,2.36h.93l7.08-.06,2.82-.02c.96,0,.93-1.41.46-1.89-1.42-.93-2.37-1.4-1.91-3.75l4.59-17.93c1.38-3.78,3.25-8.49,4.67-8.5,1.87-.02,1.43,2.81,4.25,2.81,3.31-.04,5.64-2.87,5.62-4.76" style="fill:#fff; fill-rule:evenodd;"/><path d="M200.65,142.78l5.97-24.99,1.36-4.26c.45-1.88.93-3.76-.96-3.28-1.87.48-8.46,2.41-9.41,2.41-1.41.47-1.4,1.89-.45,1.89.93.46,2.81.93,1.9,3.28l-5.96,25s-.46,1.42-.46,1.89c-.46.94-.46,1.42-1.87,1.43-1.4.47-1.4,2.36.02,2.35h.92l7.55-.05h2.36c.93-.01.93-1.45.46-1.9-1.42-.95-2.39-1.41-1.44-3.77" style="fill:#fff; fill-rule:evenodd;"/></svg>