<?xml version="1.0" encoding="UTF-8"?><svg id="uuid-c70e70c5-d281-4433-b18b-e89a3f57859c" xmlns="http://www.w3.org/2000/svg" viewBox="0 0 178.53 101.57"><g id="uuid-f465ecaa-c3d6-49fe-bc52-0bc72ad6bb99"><g id="uuid-6a74513e-3ae1-4856-94c5-b86054c85fac"><path d="M177.86,22c-.46-3.17-1.3-6.28-2.51-9.25-.91-2.45-2.3-4.7-4.09-6.61-1.33-1.32-2.68-2.62-4.06-3.88-.92-.94-2.01-1.7-3.2-2.26h-.24c-.06.21-.21.45-.16.64.12.49.3.97.53,1.42.61,1.14,1.29,2.25,1.91,3.38,1.9,3.08,1.85,6.97-.13,10-1.27,1.92-2.9,3.59-4.79,4.91-2.61,1.84-5.38,3.46-8.27,4.82-2.9,1.37-5.91,2.49-9,3.34-3.73,1.18-7.54,2.09-11.4,2.72-2.39.36-4.77.79-7.15,1.17s-4.67.71-7,1.07l-6.7,1-6.82,1-7,1-6.51.92-6.51.91-6.55.93-7.66,1.07-7.55,1.15-7.66,1.07-7.66,1.09-8.21,1.15c-2.75.39-5.5.82-8.25,1.17-2.89.35-5.74.95-8.53,1.79-4.7,1.33-9.15,3.42-13.18,6.18-2.69,1.83-4.92,4.26-6.51,7.1-1.4,2.44-2.34,5.13-2.77,7.91-.09.62-.15,1.24-.23,1.87v2.09c0,.14.06.29.08.43.12,1,.2,1.91.37,2.86.57,2.76,1.46,5.45,2.67,8,2.79,6.4,7.29,11.92,13,15.93.72.51,1.47,1,2.27,1.48.06-.58.11-1.07.15-1.57.04-2.24,1.24-4.31,3.16-5.46,1.02-.65,2.14-1.15,3.3-1.48,2.43-.63,4.9-1.1,7.36-1.55,2.46-.45,5.09-.85,7.63-1.26,2.36-.37,4.73-.72,7.09-1.08l6.3-.93,6.42-.92,6.58-.93,6.08-.84,6.08-.83,6.19-.85,6.8-.87,6.83-1,7-1,6.82-1,7.25-1.08,7.13-1.09c2.51-.39,5-.76,7.52-1.16s5.2-.82,7.79-1.25c2.82-.47,5.65-.87,8.44-1.47,6.1-1.27,11.71-4.25,16.17-8.6,4.57-4.52,7.89-10.14,9.66-16.31,1.43-4.88,2.21-9.92,2.32-15,.18-4.02-.02-8.05-.6-12.04Z" style="fill:#df0427; fill-rule:evenodd;"/><path d="M43.58,77.57c-2.35-3.56-4.68-7.12-7-10.69-.07-.16-.07-.33,0-.49,1.61-3.11,3.24-6.21,4.88-9.3.11-.15.27-.26.46-.29.54-.11,1.1-.17,1.64-.25v-5.12l-.7.08c-2.41.34-4.81.69-7.23,1-.36,0-.43.17-.42.5v4.58c0,.2-.04.39-.13.57-1.57,2.93-3.14,5.86-4.73,8.79-.05.07-.1.14-.16.21v-8.07c0-.22.1-.3.3-.34.39-.09.77-.22,1.16-.29s.35-.19.35-.46v-5.09l-12.6,1.9v5.45l2.24-.39v21.41l-2.05.37v5.57l12.29-2v-5.5l-1.71.17v-7c1.4,2.11,2.73,4.22,4,6.35.06.12.08.25.07.38v5.32l10.76-1.83v-5.45c-.32,0-.63,0-.92.11-.19.08-.42,0-.5-.2,0,0,0,0,0,0Z" style="fill:#fff;"/><path d="M134.87,63.7c-2.38-3.57-4.75-7.16-7.1-10.75-.06-.13-.06-.29,0-.42,1.62-3.12,3.25-6.23,4.89-9.34.1-.15.25-.25.42-.28.56-.11,1.13-.17,1.69-.25v-5.15c-2.64.37-5.24.76-7.83,1.09-.47.06-.55.22-.54.64v4.42c0,.21-.05.42-.14.61-1.57,2.92-3.14,5.84-4.71,8.75,0,.08-.11.15-.22.3v-8.04c0-.3.09-.43.39-.47s.7-.2,1-.26.38-.18.38-.48v-5.07l-12.6,1.9v5.45l2.23-.38v21.41l-2,.37v5.58l12.3-2v-5.5l-1.71.17v-6.95c1.39,2.1,2.71,4.2,4,6.31.07.13.1.27.09.42v5.31l10.81-1.88v-5.45c-.31.05-.62.08-.93.1-.16,0-.31-.05-.42-.16Z" style="fill:#fff;"/><path d="M159.13,41.09c-.86-2.58-2.86-4.62-5.42-5.55-1.83-.63-3.79-.78-5.7-.44-2.56.32-4.92,1.52-6.7,3.39-2.93,3.26-4.67,7.42-4.91,11.8-.21,2.29-.19,4.6.07,6.89.19,2.07.73,4.1,1.58,6,.93,2.21,2.74,3.92,5,4.71,1.61.52,3.33.65,5,.39,2.92-.35,5.63-1.68,7.71-3.76,1.3-1.41,2.29-3.08,2.91-4.89,1.25-3.45,1.85-7.11,1.78-10.78,0-.41,0-1.11-.08-1.8-.1-2.04-.52-4.05-1.24-5.96ZM151.13,51.97h-.13v6.22c.02,1.3-.49,2.56-1.42,3.47-.86.83-2.24.81-3.07-.05-.05-.05-.09-.1-.13-.15-.69-.87-1.04-1.95-1-3.06,0-4.06.02-8.12.06-12.17,0-1.21.23-2.4.69-3.52.45-1.22,1.73-1.92,3-1.65.71.05,1.31.55,1.48,1.24.37,1.23.56,2.51.55,3.8.03,1.96.02,3.9.02,5.9l-.05-.03Z" style="fill:#fff;"/><path d="M67.88,54.68c-.86-2.58-2.85-4.63-5.41-5.56-1.84-.64-3.82-.79-5.74-.44-2.56.32-4.93,1.53-6.7,3.4-2.93,3.27-4.66,7.43-4.9,11.81-.21,2.29-.19,4.6.07,6.89.2,2.08.74,4.1,1.61,6,.93,2.19,2.75,3.89,5,4.67,1.61.52,3.33.65,5,.38,2.86-.35,5.53-1.64,7.59-3.65,1.34-1.43,2.37-3.14,3-5,1.24-3.44,1.84-7.08,1.77-10.74,0-.41,0-1.1-.08-1.8-.1-2.04-.5-4.05-1.21-5.96ZM59.88,65.52h-.15v6.22c.02,1.3-.49,2.56-1.41,3.48-.85.84-2.23.83-3.07-.02-.06-.06-.11-.12-.16-.18-.69-.87-1.04-1.95-1-3.06,0-4.05.02-8.09.06-12.13,0-1.22.23-2.43.7-3.55.46-1.21,1.74-1.9,3-1.63.69.06,1.27.55,1.45,1.22.37,1.23.56,2.51.55,3.79.08,1.96.06,3.91.06,5.86h-.03Z" style="fill:#fff;"/><path d="M87.16,44.62c-2,.16-4.05.5-6.08.8-2.61.38-5.2.78-7.8,1.18-.75.11-1.5.26-2.22.38v5.58l2.06-.37v21.15l-1.93.42v5.37c.78-.12,1.53-.23,2.28-.35,3.15-.52,6.29-1.06,9.45-1.57.32-.05.39-.17.39-.46v-4.66c0-.09,0-.18,0-.27l-1.91.23v-5.14c0-.08.14-.21.23-.23,1.21-.2,2.43-.37,3.64-.58,1.14-.15,2.26-.37,3.37-.66,2.45-.64,4.36-2.55,5-5,.59-2.03.93-4.12,1-6.23.11-1.69-.11-3.39-.63-5-1.25-3.38-3.67-4.84-6.85-4.59ZM85.76,58.38c-.25,1.54-1.52,2.71-3.07,2.83-.4,0-.8.07-1.24.1v-2c0-2.66,0-5.32.06-8,0-.3.05-.47.39-.5.51,0,1-.18,1.5-.22,1.03-.16,2,.49,2.25,1.5.25.88.39,1.8.4,2.72,0,1.2-.1,2.39-.3,3.57h.01Z" style="fill:#fff;"/><path d="M106.31,41.68l-10.11,1.57v5.54l2-.27v.38c-.04,5.05-.08,10.09-.13,15.14,0,1.82,0,3.64-.05,5.46,0,.21,0,.38-.3.4s-.85.12-1.28.14-.35.12-.34.39v4.77l12.34-1.76v-5l-2.41.2c.13-9.02.21-17.97.28-26.96Z" style="fill:#fff;"/><path d="M162.43,35.37c.05-.09.08-.2.09-.31.01-.08.01-.15,0-.23-.02-.07-.06-.13-.1-.19-.05-.07-.12-.12-.2-.16-.11-.04-.22-.06-.34-.06h-1l-.05,2.21h.44v-.87h.44c.09,0,.19.02.26.08.05.08.07.18.06.28v.21c0,.06,0,.13,0,.19,0,.04,0,.08,0,.12h.5v-.05s-.07-.08-.08-.13c0-.07,0-.14,0-.21v-.15c0-.12,0-.24-.05-.35-.04-.08-.12-.15-.21-.18.1-.04.19-.11.24-.2ZM161.93,35.37c-.07.02-.15.02-.22,0h-.48v-.59h.5c.07-.02.14-.02.21,0,.09.06.13.16.12.27.04.12-.01.26-.13.31h0Z" style="fill:#fff;"/><path d="M161.66,33.48c-1.1,0-2,.9-2,2s.9,2,2,2c1.07,0,1.95-.84,2-1.91.05-1.1-.8-2.04-1.91-2.09-.03,0-.06,0-.09,0ZM161.57,37.17c-.91-.02-1.63-.78-1.61-1.69s.78-1.63,1.69-1.61c.91.02,1.63.78,1.61,1.69-.03.91-.78,1.63-1.69,1.61Z" style="fill:#fff;"/></g></g></svg>