<?xml version="1.0" encoding="UTF-8"?><svg id="a" xmlns="http://www.w3.org/2000/svg" viewBox="0 0 250.35 69.14"><g id="b"><g id="c"><path id="d" d="M30.54,66.47c-.76,1.64-1.27,2.67-2.37,2.67s-1.6-1.03-2.36-2.67C22.18,58.61,2.78,10.78.55,4.53-.61,1.26-.05.33,3.5.17,8.45-.06,47.9-.06,52.85.17c3.54.16,4.1,1.09,2.94,4.36-2.23,6.26-21.63,54.08-25.25,61.94M51.3,3c-2.64,1.15-5.28,2.32-7.91,3.49-3,1.33-9,4-12.06,5.2-2.54.99-3.78.99-6.32,0-3.05-1.2-9.05-3.87-12.05-5.2-2.64-1.17-5.27-2.34-7.91-3.49-.78-.34-1.53-.66-2.25-.96-.27-.11-.72-.29-.91.09-.18.36.24.61.47.76.61.39,1.22.75,1.84,1.11,2.38,1.39,4.86,2.76,7.27,4.1,3.01,1.67,9.08,4.94,11.93,6.86,1.85,1.24,2.26,2.23,2.42,4.41.34,4.41.57,13.26.72,17.68.19,5.9.38,11.79.59,17.69.07,2.08.14,4.17.21,6.25.05,1.33.11,2.84.21,4.17.03.43.02,1.42.62,1.42s.6-.99.63-1.42c.1-1.33.15-2.84.2-4.17.08-2.08.15-4.17.22-6.25.2-5.9.4-11.79.59-17.69.14-4.42.38-13.27.71-17.68.17-2.18.58-3.17,2.42-4.41,2.86-1.92,8.92-5.19,11.93-6.86,2.41-1.33,4.9-2.71,7.27-4.1.63-.36,1.24-.73,1.84-1.11.23-.15.65-.4.48-.76-.19-.38-.65-.2-.92-.09-.72.3-1.47.62-2.24.96" style="fill:#66747e;"/><path id="e" d="M101.26,34.5l-.02-2.09-.1-1.91-.21-1.69-.26-1.5-.37-1.28-.69-1.5-.97-1.24-1.26-.96-1.53-.67-1.3-.34-1.5-.26-1.71-.18-1.93-.1-2.11-.02h-8.09v2.93h7.89l2.17.04,1.87.12,1.52.22,1.22.3.9.39.91.75.73,1.1.51,1.44.28,1.75.09.93.04,1.08.04,1.28v1.42l-.04,2.32-.13,1.97-.2,1.65-.28,1.28-.39.96-.71.93-.98.73-1.28.53-1.54.33-.93.1-1.1.06-1.26.04h-11.22v-24.65h-3.75v27.61h13.93l2.1-.02,1.88-.1,1.69-.2,1.5-.28,1.33-.37,1.11-.47,1.12-.73.91-.93.76-1.16.52-1.38.33-1.28.22-1.44.18-1.65.09-1.83.02-2.01ZM130.39,32.55h-15.95v2.72h15.95v-2.72ZM131.37,45.51h-18.23l-.24-.04-.2-.1-.11-.16-.04-.26v-21.39h18.41v-2.8h-22.16v25.29l.14,1.02.42.71.72.45.99.14h20.3v-2.84ZM160.5,32.55h-15.97v2.72h15.97v-2.72ZM161.46,45.51h-18.21l-.26-.04-.18-.1-.13-.16-.04-.26v-21.39h18.41v-2.8h-22.16v25.29l.14,1.02.42.71.71.45,1,.14h20.3v-2.84ZM192.5,29.86l-.02-1.81-.16-1.58-.27-1.34-.38-1.12-.69-1.08-1.02-.85-1.34-.61-1.66-.37-1.24-.16-1.4-.12-1.59-.06-1.75-.02h-6.36v2.93h7.85l1.09.04.96.06.83.08,1.24.3.95.57.63.79.33,1.06.12.67.06.79.06.87v1.89l-.04.81-.06.71-.1.63-.3,1.12-.63.85-.96.59-1.26.3-.83.1-.98.06-1.09.04h-9.76v-15.28h-3.75v27.61h3.75v-9.41h8.25l2.01-.02,1.81-.1,1.57-.16,1.34-.24,1.11-.3,1.25-.59.95-.83.69-1.1.45-1.32.14-.93.12-1.06.06-1.16.02-1.26ZM224.77,48.35l-11.26-24.56-.51-1.1-.55-.85-.69-.61-.85-.36-1-.12h-2.94l-12.58,27.61h3.5l3.19-7.09,1.3-2.84h-.02l6.48-14.28.12-.24.14-.1h.35l.12.1.12.24,6.48,14.28h-11.74l-1.28,2.84h14.34l3.19,7.09h4.09ZM250.35,45.39h-17.29l-.33-.04-.24-.14-.15-.22-.04-.3v-23.93h-3.77v24.93l.18,1.16.51.83.81.51,1.14.18h19.18v-2.97Z" style="fill:#66747e; fill-rule:evenodd;"/></g></g></svg>