<?xml version="1.0" encoding="UTF-8"?><svg id="Layer_1" xmlns="http://www.w3.org/2000/svg" xmlns:xlink="http://www.w3.org/1999/xlink" viewBox="0 0 154 30.11"><defs><style>.cls-1{fill:none;}.cls-2{fill:#ed1c24;}.cls-3{clip-path:url(#clippath);}</style><clipPath id="clippath"><rect class="cls-1" y="0" width="154" height="30.11"/></clipPath></defs><g class="cls-3"><g id="Group_126552"><path id="Path_184497" class="cls-2" d="M154,6.29c0,2.21-1.79,4-4,4s-4-1.79-4-4,1.79-4,4-4c2.21,0,4,1.78,4,3.99h0"/><path id="Path_184498" class="cls-2" d="M114.42,7.9c-6.13,0-11.1,4.97-11.1,11.1s4.97,11.1,11.1,11.1c6.13,0,11.1-4.97,11.1-11.1,0-6.13-4.97-11.09-11.1-11.1M120.5,19c0,3.36-2.73,6.08-6.08,6.08-3.36,0-6.08-2.73-6.08-6.08,0-3.36,2.73-6.08,6.08-6.08,3.36,0,6.08,2.73,6.08,6.08"/><path id="Path_184499" class="cls-2" d="M136.63,7.9c-6.13,0-11.1,4.97-11.1,11.1,0,6.13,4.97,11.1,11.1,11.1,6.13,0,11.1-4.97,11.1-11.1h0c0-6.13-4.97-11.09-11.1-11.1M142.71,19c0,3.36-2.73,6.08-6.09,6.08-3.36,0-6.08-2.73-6.08-6.08,0-3.36,2.73-6.08,6.08-6.08,3.36,0,6.08,2.73,6.08,6.08"/><path id="Path_184500" class="cls-2" d="M33.31,7.9c-6.13,0-11.1,4.96-11.1,11.09s4.96,11.1,11.1,11.1c6.13,0,11.1-4.96,11.1-11.1h0c0-6.13-4.97-11.09-11.1-11.1M39.39,19c0,3.36-2.73,6.08-6.08,6.08s-6.08-2.73-6.08-6.08c0-3.36,2.73-6.08,6.08-6.08,3.36,0,6.08,2.73,6.08,6.08"/><path id="Path_184501" class="cls-2" d="M11.11,7.9C4.98,7.9,0,12.87,0,19s4.97,11.1,11.1,11.1,11.1-4.97,11.1-11.1c0-6.13-4.97-11.09-11.1-11.1M17.19,19c0,3.36-2.73,6.08-6.09,6.08-3.36,0-6.08-2.73-6.08-6.09s2.73-6.08,6.09-6.08h0c3.36,0,6.08,2.73,6.08,6.08"/><path id="Path_184502" class="cls-2" d="M101.91,0h-2.16c-.79,0-1.44.64-1.44,1.43h0s-.02,8.29-.02,8.29l-.29-.18c-5.23-3.2-12.06-1.55-15.25,3.68-3.2,5.23-1.55,12.06,3.68,15.25s12.06,1.55,15.25-3.68c1.07-1.74,1.63-3.75,1.63-5.8l.02-17.57c0-.79-.64-1.43-1.43-1.43M98.31,19c0,3.36-2.73,6.08-6.09,6.09-3.36,0-6.08-2.74-6.08-6.1,0-.03,0-.05,0-.08.11-3.26,2.73-5.88,5.99-5.99h.09c3.36,0,6.08,2.73,6.09,6.08"/><path id="Path_184503" class="cls-2" d="M60.04,14.89l.08.09h0c.61-1.53,1.55-2.9,2.74-4.03-2.2-2.25-5.31-3.37-8.44-3.06-1.87.2-3.63.94-5.08,2.13v-.58c0-.69-.56-1.24-1.24-1.24h-2.42c-.7,0-1.27.57-1.27,1.27v19.34c0,.69.56,1.24,1.24,1.24h2.43c.7,0,1.27-.57,1.27-1.27l.1-10.06c-.07-3.07,2.28-5.66,5.34-5.9,1.99-.21,3.95.57,5.25,2.08"/><path id="Path_184504" class="cls-2" d="M79.07,25.41l-2.95-1.63c-.36-.21-.81-.18-1.14.08l-.53.34c-.99.58-2.12.89-3.26.91h-.27c-.55,0-1.09-.04-1.63-.14-1.81-.35-3.36-1.5-4.21-3.13l-.28-.66h16.52c-.21-1.06-.27-2.15-.17-3.23.04-.39.1-.77.17-1.15-1.09-5.34-5.88-9.1-11.32-8.89-5.89.29-10.56,5.1-10.66,11-.07,5.7,4.2,10.51,9.87,11.13l.61.05c.33.02.66.03,1.01.03.13,0,.25,0,.38,0,2.59.02,5.11-.83,7.16-2.41l.03-.02s.06-.03.09-.06l.78-.71c.22-.19.32-.48.29-.77-.04-.31-.22-.57-.49-.72M70.45,12.92c2.45-.01,4.66,1.47,5.59,3.74h-11.19c.94-2.27,3.15-3.74,5.6-3.74"/></g></g></svg>