<?xml version="1.0" encoding="UTF-8"?><svg id="Layer_1" xmlns="http://www.w3.org/2000/svg" xmlns:xlink="http://www.w3.org/1999/xlink" viewBox="0 0 173.64 142.34"><defs><style>.cls-1{fill:#ed1a3b;}.cls-2{fill:url(#linear-gradient-8);}.cls-3{fill:url(#linear-gradient-7);}.cls-4{fill:url(#linear-gradient-5);}.cls-5{fill:url(#linear-gradient-6);}.cls-6{fill:url(#linear-gradient-9);}.cls-7{fill:url(#linear-gradient-4);}.cls-8{fill:url(#linear-gradient-3);}.cls-9{fill:url(#linear-gradient-2);}.cls-10{fill:#231f20;}.cls-11{fill:url(#linear-gradient);}.cls-12{fill:#fff;}.cls-13{fill:#404041;}.cls-14{fill:url(#linear-gradient-10);}.cls-15{fill:url(#linear-gradient-11);}.cls-16{fill:url(#linear-gradient-12);}</style><linearGradient id="linear-gradient" x1="85.09" y1="87.53" x2="85.09" y2="32" gradientUnits="userSpaceOnUse"><stop offset="0" stop-color="#d0d2d3"/><stop offset=".16" stop-color="#f1f1f2"/><stop offset=".16" stop-color="#f0f0f1"/><stop offset=".26" stop-color="#e8e9ea"/><stop offset=".44" stop-color="#e6e7e8"/><stop offset=".56" stop-color="#cecfd1"/><stop offset=".81" stop-color="#939496"/><stop offset="1" stop-color="#626366"/></linearGradient><linearGradient id="linear-gradient-2" x1="95.11" y1="39.69" x2="76.27" y2="23.88" gradientUnits="userSpaceOnUse"><stop offset="0" stop-color="#e6e7e8"/><stop offset=".44" stop-color="#e6e7e8"/><stop offset=".56" stop-color="#cecfd1"/><stop offset=".81" stop-color="#939496"/><stop offset="1" stop-color="#626366"/></linearGradient><linearGradient id="linear-gradient-3" x1="96.93" y1="65.67" x2="69.67" y2="49.93" xlink:href="#linear-gradient-2"/><linearGradient id="linear-gradient-4" x1="85.09" y1="45.21" x2="85.09" y2="15.12" xlink:href="#linear-gradient-2"/><linearGradient id="linear-gradient-5" x1="85.09" y1=".38" x2="85.09" y2="97.85" gradientUnits="userSpaceOnUse"><stop offset="0" stop-color="#c5c7c9"/><stop offset=".05" stop-color="#d3d5d6"/><stop offset=".12" stop-color="#e6e7e8"/><stop offset=".12" stop-color="#e8e9ea"/><stop offset=".15" stop-color="#efeff0"/><stop offset=".21" stop-color="#f1f1f2"/><stop offset=".55" stop-color="#f1f1f2"/><stop offset=".61" stop-color="#cbcccd"/><stop offset=".69" stop-color="#a5a6a8"/><stop offset=".77" stop-color="#88888b"/><stop offset=".85" stop-color="#737376"/><stop offset=".93" stop-color="#66676a"/><stop offset="1" stop-color="#626366"/></linearGradient><linearGradient id="linear-gradient-6" x1="85.09" y1=".38" x2="85.09" y2="97.85" xlink:href="#linear-gradient-5"/><linearGradient id="linear-gradient-7" x1="85.09" y1=".39" x2="85.09" y2="97.86" xlink:href="#linear-gradient-5"/><linearGradient id="linear-gradient-8" x1="85.09" y1="20.59" x2="85.09" y2="48.37" gradientUnits="userSpaceOnUse"><stop offset="0" stop-color="#e6e7e8"/><stop offset="1" stop-color="#6d6e70"/></linearGradient><linearGradient id="linear-gradient-9" x1="94.72" y1=".38" x2="94.72" y2="48.1" xlink:href="#linear-gradient-2"/><linearGradient id="linear-gradient-10" x1="75.47" y1=".38" x2="75.47" y2="48.1" xlink:href="#linear-gradient-2"/><linearGradient id="linear-gradient-11" x1="74.9" y1=".38" x2="74.9" y2="79.3" xlink:href="#linear-gradient-2"/><linearGradient id="linear-gradient-12" x1="95.29" y1=".38" x2="95.29" y2="79.3" xlink:href="#linear-gradient-2"/></defs><path class="cls-1" d="M86.62,126.88c-.03-8.54,6.86-15.43,15.46-15.45,8.4.02,15.29,6.91,15.45,15.45-.17,8.45-7.06,15.34-15.45,15.46-8.6-.12-15.48-7.01-15.46-15.46h0ZM102.07,136.64c4.64-.07,8.49-4.43,8.54-9.76-.05-5.43-3.9-9.79-8.54-9.76-4.84-.03-8.69,4.33-8.54,9.76-.15,5.33,3.7,9.69,8.54,9.76"/><polyline class="cls-1" points="135.01 117.94 135.01 141.53 128.51 141.53 128.51 117.94 119.15 117.94 119.15 112.65 143.96 112.65 143.96 117.94 135.01 117.94"/><path class="cls-1" d="M151.68,135.01h0l-2.43,6.51h-7.72l12.2-28.87h8.13l11.79,28.87h-7.72l-2.44-6.51h-11.8ZM157.78,130.14h4.06l-4.06-10.57-4.07,10.57h4.07"/><polyline class="cls-1" points="15.45 117.94 15.45 141.53 8.94 141.53 8.94 117.94 0 117.94 0 112.65 24.4 112.65 24.4 117.94 15.45 117.94"/><path class="cls-1" d="M26.02,126.88c.01-8.54,6.9-15.43,15.45-15.45,8.44.02,15.33,6.91,15.46,15.45-.12,8.45-7.01,15.34-15.46,15.46-8.55-.12-15.43-7.01-15.45-15.46h0ZM41.47,136.64c4.7-.07,8.54-4.43,8.54-9.76,0-5.43-3.85-9.79-8.54-9.76-4.8-.03-8.64,4.33-8.53,9.76-.11,5.33,3.74,9.69,8.53,9.76"/><polyline class="cls-1" points="71.57 141.53 74.82 141.53 74.82 130.54 86.21 112.65 78.89 112.65 71.57 124.85 64.66 112.65 56.93 112.65 68.32 130.54 68.32 141.53 71.57 141.53"/><path class="cls-10" d="M6.09,49.12c0,27.08,35.44,49.12,79.01,49.12s79-22.04,79-49.12S128.66,0,85.09,0,6.09,22.04,6.09,49.12ZM6.85,49.12C6.85,22.46,41.95.77,85.09.77s78.24,21.69,78.24,48.35-35.1,48.35-78.24,48.35S6.85,75.78,6.85,49.12Z"/><path class="cls-10" d="M77.6,9.08c-18.07,1.11-31.67,5.96-33.83,12.07-.21.59-.31,1.18-.31,1.77,0,.95.27,1.89.82,2.82,2.46,4.2,10.31,7.7,21.52,9.61l.38.06.06-.38c1.92-11.67,6.16-20.88,11.64-25.27l.94-.76-1.21.07ZM44.93,25.35c-.47-.8-.71-1.62-.71-2.44,0-.5.09-1.01.27-1.51h0c1.99-5.61,15.12-10.28,32.08-11.47-5.16,4.68-9.15,13.52-11.02,24.6-10.63-1.86-18.33-5.27-20.62-9.17ZM43.76,21.14h0Z"/><path class="cls-10" d="M74.96,36.05l-.07.42.42.03c3.18.24,6.47.37,9.78.37s6.6-.12,9.79-.37l.42-.03-.07-.42c-1.74-9.77-5.62-15.84-10.13-15.84s-8.39,6.07-10.13,15.84ZM85.09,20.98c4.05,0,7.58,5.66,9.29,14.78-3.03.22-6.15.34-9.29.34s-6.26-.12-9.29-.34c1.7-9.12,5.24-14.78,9.29-14.78Z"/><path class="cls-10" d="M92.32,9.76c5.48,4.39,9.72,13.6,11.63,25.27l.06.38.38-.06c11.21-1.91,19.05-5.41,21.52-9.61.88-1.5,1.05-3.05.5-4.59-2.17-6.11-15.76-10.96-33.83-12.07l-1.21-.07.94.76ZM93.61,9.92c16.97,1.2,30.09,5.86,32.08,11.47.18.5.27,1.01.27,1.51,0,.82-.24,1.64-.71,2.44-2.29,3.9-9.99,7.31-20.62,9.17-1.88-11.08-5.86-19.91-11.02-24.6Z"/><path class="cls-10" d="M31.69,26.32c-8.2,6.87-12.54,15-12.54,23.52,0,20.21,24.85,37.31,57.81,39.77l1.17.09-.89-.76c-7.5-6.42-12.15-21.51-12.15-39.4l.06-3.49-.32-.06c-18.18-3.27-30.64-10.72-32.52-19.47l-.13-.62-.49.41ZM19.92,49.84c0-8.13,4.1-15.9,11.82-22.54,2.36,8.73,14.74,16.1,32.63,19.38,0,.53-.05,2.86-.05,2.86,0,17.43,4.42,32.26,11.59,39.19-31.99-2.73-55.99-19.31-55.99-38.9Z"/><path class="cls-10" d="M73.97,47.64v.44c0,15.67,4.88,27.95,11.12,27.95s11.12-12.28,11.12-27.95v-.86s-.42.04-.42.04c-3.49.31-7.09.46-10.7.46s-7.21-.15-10.7-.46l-.41-.04v.41ZM74.74,48.08v-.03c3.38.28,6.86.44,10.36.44s6.97-.15,10.36-.44v.03c0,15.24-4.55,27.18-10.36,27.18s-10.36-11.94-10.36-27.18Z"/><path class="cls-10" d="M137.88,26.53c-1.88,8.74-14.34,16.2-32.52,19.47l-.32.06.06,3.49c0,17.89-4.66,32.98-12.15,39.4l-.89.76,1.16-.09c32.96-2.46,57.81-19.56,57.81-39.77,0-8.52-4.34-16.66-12.54-23.52l-.49-.41-.13.62ZM138.44,27.3c7.72,6.63,11.82,14.41,11.82,22.54,0,19.58-24,36.17-56,38.9,7.17-6.93,11.59-21.76,11.59-39.19,0,0-.04-2.33-.05-2.86,17.89-3.28,30.27-10.65,32.63-19.38Z"/><path class="cls-11" d="M137.92,20.04c.11.32.22.63.3.96.46,1.83.37,3.64-.23,5.39,7.96,6.57,12.67,14.68,12.67,23.46,0,21.92-29.35,39.69-65.56,39.69S19.54,71.76,19.54,49.84c0-8.77,4.7-16.88,12.67-23.45-.6-1.75-.69-3.56-.23-5.39.08-.33.22-.67.38-1.01-10.87,7.74-17.46,17.89-17.46,29.01,0,24.28,31.43,43.96,70.21,43.96s70.21-19.68,70.21-43.96c0-11.09-6.56-21.22-17.38-28.96Z"/><path class="cls-9" d="M75.33,36.12l-2.03,1.47c1.66-12.59,6.31-20.65,11.79-20.65s10.12,8.06,11.78,20.65l-2.03-1.46h0c-1.7-9.55-5.43-15.52-9.76-15.52s-8.05,5.97-9.75,15.52h0Z"/><path class="cls-8" d="M97.48,44.67l-1.65,2.97h0c0,.15,0,.29,0,.44,0,15.68-4.81,27.56-10.74,27.56s-10.74-11.88-10.74-27.56c0-.17,0-.34,0-.51l-1.65-2.9c-.04,1.11-.06,2.25-.06,3.4,0,17.77,5.57,31.23,12.45,31.23s12.45-13.46,12.45-31.23c0-1.16-.02-2.29-.06-3.4Z"/><path class="cls-7" d="M94.84,36.11c-3.09.23-6.35.36-9.75.36s-6.66-.13-9.75-.36h0s-2.02,1.47-2.02,1.47c3.73.33,7.67.51,11.79.51s8.05-.18,11.78-.51l-2.03-1.46h0ZM130.7,20.71c-2.46-8.14-22.78-14.12-45.61-14.12s-43.15,5.98-45.61,14.12c-2.14,7.07,9.54,13.61,27.96,16.2l-1.6-1.94h0c-14.9-2.54-23.76-7.95-21.72-13.7,2.47-6.98,20.47-12.04,40.96-12.04s38.49,5.06,40.97,12.04c2.04,5.75-6.81,11.16-21.72,13.7h0s-1.6,1.95-1.6,1.95c18.42-2.59,30.1-9.13,27.96-16.2Z"/><path class="cls-13" d="M137.99,26.38c3.05,2.51,5.61,5.25,7.62,8.17-.71-4.74-2.6-9.09-5.36-12.76-.75-.6-1.53-1.18-2.33-1.76.11.32.22.63.3.96.46,1.83.37,3.64-.23,5.39Z"/><path class="cls-13" d="M32.2,26.38c-.6-1.75-.69-3.56-.23-5.39.08-.33.22-.67.38-1.01-.83.59-1.63,1.2-2.41,1.82-2.76,3.66-4.65,8.02-5.36,12.76,2.01-2.92,4.58-5.66,7.62-8.17Z"/><path class="cls-4" d="M6.47,49.12C6.47,22.2,41.67.38,85.09.38s78.62,21.82,78.62,48.74-35.2,48.74-78.62,48.74S6.47,76.04,6.47,49.12ZM85.09,92.95c38.77,0,70.2-19.68,70.2-43.96S123.87,5.04,85.09,5.04,14.88,24.72,14.88,49s31.43,43.96,70.21,43.96Z"/><path class="cls-12" d="M14.43,49c0,24.49,31.7,44.42,70.67,44.42s70.66-19.92,70.66-44.42S124.06,4.58,85.09,4.58,14.43,24.5,14.43,49ZM15.34,49C15.34,25.01,46.63,5.5,85.09,5.5s69.75,19.51,69.75,43.5-31.29,43.5-69.75,43.5S15.34,72.98,15.34,49Z"/><path class="cls-5" d="M66.63,49.54c0-23.47,8.27-42.95,18.47-42.95s18.47,19.48,18.47,42.95-8.27,42.95-18.47,42.95-18.47-19.23-18.47-42.95ZM85.09,79.3c6.87,0,12.45-13.46,12.45-31.23s-5.57-31.14-12.45-31.14-12.45,12.7-12.45,31.14,5.57,31.23,12.45,31.23Z"/><path class="cls-3" d="M31.97,21C34,12.97,58.5,1.29,85.09,1.29s50.25,8.34,53.12,19.7c3.22,12.73-20.4,24.25-53.12,24.25s-56.34-11.51-53.12-24.25ZM85.09,6.59c-22.83,0-43.15,5.98-45.61,14.12-2.76,9.13,17.52,17.38,45.61,17.38s48.37-8.25,45.61-17.38c-2.46-8.14-22.78-14.12-45.61-14.12Z"/><path class="cls-2" d="M72.69,44.66h.02s1.69,2.98,1.69,2.98c3.43.3,7,.46,10.7.46s7.29-.16,10.74-.47l1.64-2.97h0c-3.95.37-8.09.57-12.39.57s-8.45-.21-12.4-.58ZM138.49,23.74c-.43,9.11-14.41,17.17-35.1,20.21h0s2.02,2.41,2.02,2.41c20.23-3.64,33.55-12.57,33.07-22.62ZM31.69,23.74c-.48,10.06,12.83,18.99,33.06,22.62l2.02-2.41h0c-20.68-3.04-34.67-11.11-35.09-20.21Z"/><path class="cls-6" d="M102.74,36.92h0l1.6-1.94c-2.79-16.98-10.36-28.39-19.24-28.39,8.3,0,15.31,12.89,17.65,30.33Z"/><path class="cls-14" d="M67.45,36.92c2.33-17.44,9.35-30.33,17.65-30.33-8.89,0-16.46,11.41-19.25,28.39l1.6,1.94h0Z"/><path class="cls-15" d="M66.63,49.54c0-1.89.06-3.76.16-5.59h0l-2.02,2.41c-.04,1.05-.06,2.11-.06,3.18,0,25.12,8.96,42.95,20.39,42.95-10.2,0-18.47-19.23-18.47-42.95Z"/><path class="cls-16" d="M105.43,46.36l-2.02-2.41h0c.1,1.83.16,3.7.16,5.59,0,23.72-8.27,42.95-18.47,42.95,11.43,0,20.39-17.84,20.39-42.95,0-1.07-.02-2.13-.06-3.18Z"/></svg>